<?xml version="1.0" encoding="UTF-8" standalone="no"?>
<!DOCTYPE svg PUBLIC "-//W3C//DTD SVG 1.1//EN"
 "http://www.w3.org/Graphics/SVG/1.1/DTD/svg11.dtd">
<!-- Generated by graphviz version 3.0.0 (20220226.1711)
 -->
<!-- Pages: 1 -->
<svg width="1584pt" height="620pt"
 viewBox="0.00 0.00 1583.81 620.00" xmlns="http://www.w3.org/2000/svg" xmlns:xlink="http://www.w3.org/1999/xlink">
<g id="graph0" class="graph" transform="scale(1 1) rotate(0) translate(4 616)">
<polygon fill="white" stroke="transparent" points="-4,4 -4,-616 1579.81,-616 1579.81,4 -4,4"/>
<!-- [root] aws_acm_certificate.cert (expand) -->
<g id="node1" class="node">
<title>[root] aws_acm_certificate.cert (expand)</title>
<polygon fill="none" stroke="black" points="762,-180 610,-180 610,-144 762,-144 762,-180"/>
<text text-anchor="middle" x="686" y="-158.3" font-family="Times,serif" font-size="14.00">aws_acm_certificate.cert</text>
</g>
<!-- [root] provider[&quot;registry.terraform.io/hashicorp/aws&quot;] -->
<g id="node17" class="node">
<title>[root] provider[&quot;registry.terraform.io/hashicorp/aws&quot;]</title>
<polygon fill="none" stroke="black" points="577,-108 324.46,-90 577,-72 829.54,-90 577,-108"/>
<text text-anchor="middle" x="577" y="-86.3" font-family="Times,serif" font-size="14.00">provider[&quot;registry.terraform.io/hashicorp/aws&quot;]</text>
</g>
<!-- [root] aws_acm_certificate.cert (expand)&#45;&gt;[root] provider[&quot;registry.terraform.io/hashicorp/aws&quot;] -->
<g id="edge2" class="edge">
<title>[root] aws_acm_certificate.cert (expand)&#45;&gt;[root] provider[&quot;registry.terraform.io/hashicorp/aws&quot;]</title>
<path fill="none" stroke="black" d="M659.34,-143.88C644.34,-134.25 625.5,-122.15 609.63,-111.95"/>
<polygon fill="black" stroke="black" points="611.46,-108.97 601.16,-106.51 607.68,-114.86 611.46,-108.97"/>
</g>
<!-- [root] local.FQDN (expand) -->
<g id="node22" class="node">
<title>[root] local.FQDN (expand)</title>
<ellipse fill="none" stroke="black" cx="958" cy="-90" rx="110.48" ry="18"/>
<text text-anchor="middle" x="958" y="-86.3" font-family="Times,serif" font-size="14.00">[root] local.FQDN (expand)</text>
</g>
<!-- [root] aws_acm_certificate.cert (expand)&#45;&gt;[root] local.FQDN (expand) -->
<g id="edge1" class="edge">
<title>[root] aws_acm_certificate.cert (expand)&#45;&gt;[root] local.FQDN (expand)</title>
<path fill="none" stroke="black" d="M752.19,-143.97C794.55,-133.06 849.32,-118.97 891.7,-108.06"/>
<polygon fill="black" stroke="black" points="892.83,-111.39 901.64,-105.5 891.09,-104.61 892.83,-111.39"/>
</g>
<!-- [root] aws_acm_certificate_validation.site (expand) -->
<g id="node2" class="node">
<title>[root] aws_acm_certificate_validation.site (expand)</title>
<polygon fill="none" stroke="black" points="481,-324 269,-324 269,-288 481,-288 481,-324"/>
<text text-anchor="middle" x="375" y="-302.3" font-family="Times,serif" font-size="14.00">aws_acm_certificate_validation.site</text>
</g>
<!-- [root] aws_route53_record.verif&#45;records (expand) -->
<g id="node5" class="node">
<title>[root] aws_route53_record.verif&#45;records (expand)</title>
<polygon fill="none" stroke="black" points="805,-252 605,-252 605,-216 805,-216 805,-252"/>
<text text-anchor="middle" x="705" y="-230.3" font-family="Times,serif" font-size="14.00">aws_route53_record.verif&#45;records</text>
</g>
<!-- [root] aws_acm_certificate_validation.site (expand)&#45;&gt;[root] aws_route53_record.verif&#45;records (expand) -->
<g id="edge3" class="edge">
<title>[root] aws_acm_certificate_validation.site (expand)&#45;&gt;[root] aws_route53_record.verif&#45;records (expand)</title>
<path fill="none" stroke="black" d="M455.31,-287.97C503.51,-277.74 564.94,-264.71 614.81,-254.13"/>
<polygon fill="black" stroke="black" points="615.57,-257.55 624.62,-252.05 614.11,-250.7 615.57,-257.55"/>
</g>
<!-- [root] aws_cloudfront_distribution.cdn (expand) -->
<g id="node3" class="node">
<title>[root] aws_cloudfront_distribution.cdn (expand)</title>
<polygon fill="none" stroke="black" points="263.5,-396 70.5,-396 70.5,-360 263.5,-360 263.5,-396"/>
<text text-anchor="middle" x="167" y="-374.3" font-family="Times,serif" font-size="14.00">aws_cloudfront_distribution.cdn</text>
</g>
<!-- [root] aws_cloudfront_distribution.cdn (expand)&#45;&gt;[root] aws_acm_certificate_validation.site (expand) -->
<g id="edge4" class="edge">
<title>[root] aws_cloudfront_distribution.cdn (expand)&#45;&gt;[root] aws_acm_certificate_validation.site (expand)</title>
<path fill="none" stroke="black" d="M217.62,-359.97C246.81,-350.14 283.69,-337.73 314.42,-327.39"/>
<polygon fill="black" stroke="black" points="315.8,-330.62 324.16,-324.11 313.56,-323.98 315.8,-330.62"/>
</g>
<!-- [root] aws_route53_record.root_domain (expand) -->
<g id="node4" class="node">
<title>[root] aws_route53_record.root_domain (expand)</title>
<polygon fill="none" stroke="black" points="267,-468 67,-468 67,-432 267,-432 267,-468"/>
<text text-anchor="middle" x="167" y="-446.3" font-family="Times,serif" font-size="14.00">aws_route53_record.root_domain</text>
</g>
<!-- [root] aws_route53_record.root_domain (expand)&#45;&gt;[root] aws_cloudfront_distribution.cdn (expand) -->
<g id="edge5" class="edge">
<title>[root] aws_route53_record.root_domain (expand)&#45;&gt;[root] aws_cloudfront_distribution.cdn (expand)</title>
<path fill="none" stroke="black" d="M167,-431.7C167,-423.98 167,-414.71 167,-406.11"/>
<polygon fill="black" stroke="black" points="170.5,-406.1 167,-396.1 163.5,-406.1 170.5,-406.1"/>
</g>
<!-- [root] aws_route53_record.verif&#45;records (expand)&#45;&gt;[root] aws_acm_certificate.cert (expand) -->
<g id="edge6" class="edge">
<title>[root] aws_route53_record.verif&#45;records (expand)&#45;&gt;[root] aws_acm_certificate.cert (expand)</title>
<path fill="none" stroke="black" d="M700.3,-215.7C698.19,-207.9 695.64,-198.51 693.28,-189.83"/>
<polygon fill="black" stroke="black" points="696.64,-188.84 690.64,-180.1 689.88,-190.67 696.64,-188.84"/>
</g>
<!-- [root] aws_route53_zone.main (expand) -->
<g id="node7" class="node">
<title>[root] aws_route53_zone.main (expand)</title>
<polygon fill="none" stroke="black" points="929.5,-180 780.5,-180 780.5,-144 929.5,-144 929.5,-180"/>
<text text-anchor="middle" x="855" y="-158.3" font-family="Times,serif" font-size="14.00">aws_route53_zone.main</text>
</g>
<!-- [root] aws_route53_record.verif&#45;records (expand)&#45;&gt;[root] aws_route53_zone.main (expand) -->
<g id="edge7" class="edge">
<title>[root] aws_route53_record.verif&#45;records (expand)&#45;&gt;[root] aws_route53_zone.main (expand)</title>
<path fill="none" stroke="black" d="M741.69,-215.88C762.02,-206.39 787.47,-194.51 809.1,-184.42"/>
<polygon fill="black" stroke="black" points="810.84,-187.47 818.43,-180.07 807.88,-181.13 810.84,-187.47"/>
</g>
<!-- [root] aws_route53_record.www_domain (expand) -->
<g id="node6" class="node">
<title>[root] aws_route53_record.www_domain (expand)</title>
<polygon fill="none" stroke="black" points="493,-468 285,-468 285,-432 493,-432 493,-468"/>
<text text-anchor="middle" x="389" y="-446.3" font-family="Times,serif" font-size="14.00">aws_route53_record.www_domain</text>
</g>
<!-- [root] aws_route53_record.www_domain (expand)&#45;&gt;[root] aws_cloudfront_distribution.cdn (expand) -->
<g id="edge8" class="edge">
<title>[root] aws_route53_record.www_domain (expand)&#45;&gt;[root] aws_cloudfront_distribution.cdn (expand)</title>
<path fill="none" stroke="black" d="M334.98,-431.97C303.55,-422.06 263.77,-409.51 230.81,-399.12"/>
<polygon fill="black" stroke="black" points="231.86,-395.78 221.27,-396.11 229.75,-402.46 231.86,-395.78"/>
</g>
<!-- [root] aws_route53_zone.main (expand)&#45;&gt;[root] provider[&quot;registry.terraform.io/hashicorp/aws&quot;] -->
<g id="edge10" class="edge">
<title>[root] aws_route53_zone.main (expand)&#45;&gt;[root] provider[&quot;registry.terraform.io/hashicorp/aws&quot;]</title>
<path fill="none" stroke="black" d="M787.35,-143.97C742.22,-132.6 683.34,-117.78 639.35,-106.7"/>
<polygon fill="black" stroke="black" points="640.19,-103.3 629.64,-104.25 638.48,-110.09 640.19,-103.3"/>
</g>
<!-- [root] aws_route53_zone.main (expand)&#45;&gt;[root] local.FQDN (expand) -->
<g id="edge9" class="edge">
<title>[root] aws_route53_zone.main (expand)&#45;&gt;[root] local.FQDN (expand)</title>
<path fill="none" stroke="black" d="M880.2,-143.88C893.61,-134.76 910.28,-123.43 924.75,-113.6"/>
<polygon fill="black" stroke="black" points="927.12,-116.22 933.42,-107.71 923.18,-110.43 927.12,-116.22"/>
</g>
<!-- [root] aws_s3_bucket.site (expand) -->
<g id="node8" class="node">
<title>[root] aws_s3_bucket.site (expand)</title>
<polygon fill="none" stroke="black" points="828,-324 706,-324 706,-288 828,-288 828,-324"/>
<text text-anchor="middle" x="767" y="-302.3" font-family="Times,serif" font-size="14.00">aws_s3_bucket.site</text>
</g>
<!-- [root] aws_s3_bucket.site (expand)&#45;&gt;[root] provider[&quot;registry.terraform.io/hashicorp/aws&quot;] -->
<g id="edge12" class="edge">
<title>[root] aws_s3_bucket.site (expand)&#45;&gt;[root] provider[&quot;registry.terraform.io/hashicorp/aws&quot;]</title>
<path fill="none" stroke="black" d="M705.65,-302.18C668.24,-297.04 622.63,-284.02 596,-252 564.52,-214.15 567.19,-152.87 572.03,-117.84"/>
<polygon fill="black" stroke="black" points="575.51,-118.28 573.57,-107.87 568.59,-117.21 575.51,-118.28"/>
</g>
<!-- [root] aws_s3_bucket.site (expand)&#45;&gt;[root] local.FQDN (expand) -->
<g id="edge11" class="edge">
<title>[root] aws_s3_bucket.site (expand)&#45;&gt;[root] local.FQDN (expand)</title>
<path fill="none" stroke="black" d="M804.89,-287.84C844.7,-267.78 906.01,-230.76 939,-180 950.95,-161.62 955.53,-137.01 957.21,-118.33"/>
<polygon fill="black" stroke="black" points="960.72,-118.33 957.91,-108.11 953.74,-117.85 960.72,-118.33"/>
</g>
<!-- [root] aws_s3_bucket_acl.site (expand) -->
<g id="node9" class="node">
<title>[root] aws_s3_bucket_acl.site (expand)</title>
<polygon fill="none" stroke="black" points="839,-396 695,-396 695,-360 839,-360 839,-396"/>
<text text-anchor="middle" x="767" y="-374.3" font-family="Times,serif" font-size="14.00">aws_s3_bucket_acl.site</text>
</g>
<!-- [root] aws_s3_bucket_acl.site (expand)&#45;&gt;[root] aws_s3_bucket.site (expand) -->
<g id="edge13" class="edge">
<title>[root] aws_s3_bucket_acl.site (expand)&#45;&gt;[root] aws_s3_bucket.site (expand)</title>
<path fill="none" stroke="black" d="M767,-359.7C767,-351.98 767,-342.71 767,-334.11"/>
<polygon fill="black" stroke="black" points="770.5,-334.1 767,-324.1 763.5,-334.1 770.5,-334.1"/>
</g>
<!-- [root] aws_s3_bucket_policy.allow_access_from_cloudfront_OAI (expand) -->
<g id="node10" class="node">
<title>[root] aws_s3_bucket_policy.allow_access_from_cloudfront_OAI (expand)</title>
<polygon fill="none" stroke="black" points="852.5,-468 511.5,-468 511.5,-432 852.5,-432 852.5,-468"/>
<text text-anchor="middle" x="682" y="-446.3" font-family="Times,serif" font-size="14.00">aws_s3_bucket_policy.allow_access_from_cloudfront_OAI</text>
</g>
<!-- [root] data.aws_iam_policy_document.allow_access_from_cloudfront_OAI (expand) -->
<g id="node11" class="node">
<title>[root] data.aws_iam_policy_document.allow_access_from_cloudfront_OAI (expand)</title>
<polygon fill="none" stroke="black" points="676.5,-396 281.5,-396 281.5,-360 676.5,-360 676.5,-396"/>
<text text-anchor="middle" x="479" y="-374.3" font-family="Times,serif" font-size="14.00">data.aws_iam_policy_document.allow_access_from_cloudfront_OAI</text>
</g>
<!-- [root] aws_s3_bucket_policy.allow_access_from_cloudfront_OAI (expand)&#45;&gt;[root] data.aws_iam_policy_document.allow_access_from_cloudfront_OAI (expand) -->
<g id="edge14" class="edge">
<title>[root] aws_s3_bucket_policy.allow_access_from_cloudfront_OAI (expand)&#45;&gt;[root] data.aws_iam_policy_document.allow_access_from_cloudfront_OAI (expand)</title>
<path fill="none" stroke="black" d="M632.6,-431.97C604.11,-422.14 568.11,-409.73 538.13,-399.39"/>
<polygon fill="black" stroke="black" points="539.22,-396.06 528.62,-396.11 536.93,-402.68 539.22,-396.06"/>
</g>
<!-- [root] data.aws_iam_policy_document.allow_access_from_cloudfront_OAI (expand)&#45;&gt;[root] aws_s3_bucket.site (expand) -->
<g id="edge15" class="edge">
<title>[root] data.aws_iam_policy_document.allow_access_from_cloudfront_OAI (expand)&#45;&gt;[root] aws_s3_bucket.site (expand)</title>
<path fill="none" stroke="black" d="M549.08,-359.97C593.67,-349.13 651.21,-335.14 695.98,-324.26"/>
<polygon fill="black" stroke="black" points="697.01,-327.61 705.9,-321.85 695.36,-320.81 697.01,-327.61"/>
</g>
<!-- [root] gandi_livedns_record.site (expand) -->
<g id="node12" class="node">
<title>[root] gandi_livedns_record.site (expand)</title>
<polygon fill="none" stroke="black" points="1379,-468 1223,-468 1223,-432 1379,-432 1379,-468"/>
<text text-anchor="middle" x="1301" y="-446.3" font-family="Times,serif" font-size="14.00">gandi_livedns_record.site</text>
</g>
<!-- [root] gandi_livedns_record.site (expand)&#45;&gt;[root] aws_route53_zone.main (expand) -->
<g id="edge16" class="edge">
<title>[root] gandi_livedns_record.site (expand)&#45;&gt;[root] aws_route53_zone.main (expand)</title>
<path fill="none" stroke="black" d="M1379.4,-448.94C1473.67,-445.84 1613.67,-429.85 1566,-360 1494.89,-255.82 1112.36,-195.34 939.68,-172.98"/>
<polygon fill="black" stroke="black" points="939.98,-169.49 929.62,-171.69 939.09,-176.43 939.98,-169.49"/>
</g>
<!-- [root] provider[&quot;registry.terraform.io/go&#45;gandi/gandi&quot;] -->
<g id="node16" class="node">
<title>[root] provider[&quot;registry.terraform.io/go&#45;gandi/gandi&quot;]</title>
<polygon fill="none" stroke="black" points="1301,-396 1044.61,-378 1301,-360 1557.39,-378 1301,-396"/>
<text text-anchor="middle" x="1301" y="-374.3" font-family="Times,serif" font-size="14.00">provider[&quot;registry.terraform.io/go&#45;gandi/gandi&quot;]</text>
</g>
<!-- [root] gandi_livedns_record.site (expand)&#45;&gt;[root] provider[&quot;registry.terraform.io/go&#45;gandi/gandi&quot;] -->
<g id="edge17" class="edge">
<title>[root] gandi_livedns_record.site (expand)&#45;&gt;[root] provider[&quot;registry.terraform.io/go&#45;gandi/gandi&quot;]</title>
<path fill="none" stroke="black" d="M1301,-431.7C1301,-423.98 1301,-414.71 1301,-406.11"/>
<polygon fill="black" stroke="black" points="1304.5,-406.1 1301,-396.1 1297.5,-406.1 1304.5,-406.1"/>
</g>
<!-- [root] output.cdn_domain -->
<g id="node13" class="node">
<title>[root] output.cdn_domain</title>
<polygon fill="none" stroke="black" points="116,-540 0,-540 0,-504 122,-504 122,-534 116,-540"/>
<polyline fill="none" stroke="black" points="116,-540 116,-534 "/>
<polyline fill="none" stroke="black" points="122,-534 116,-534 "/>
<text text-anchor="middle" x="61" y="-518.3" font-family="Times,serif" font-size="14.00">output.cdn_domain</text>
</g>
<!-- [root] output.cdn_domain&#45;&gt;[root] aws_cloudfront_distribution.cdn (expand) -->
<g id="edge20" class="edge">
<title>[root] output.cdn_domain&#45;&gt;[root] aws_cloudfront_distribution.cdn (expand)</title>
<path fill="none" stroke="black" d="M55.1,-503.8C49.69,-484.72 44.39,-453.76 58,-432 66.55,-418.34 79.74,-408.1 94.03,-400.47"/>
<polygon fill="black" stroke="black" points="95.61,-403.6 103.04,-396.05 92.52,-397.32 95.61,-403.6"/>
</g>
<!-- [root] output.route53_domain -->
<g id="node14" class="node">
<title>[root] output.route53_domain</title>
<polygon fill="none" stroke="black" points="322,-540 184,-540 184,-504 328,-504 328,-534 322,-540"/>
<polyline fill="none" stroke="black" points="322,-540 322,-534 "/>
<polyline fill="none" stroke="black" points="328,-534 322,-534 "/>
<text text-anchor="middle" x="256" y="-518.3" font-family="Times,serif" font-size="14.00">output.route53_domain</text>
</g>
<!-- [root] output.route53_domain&#45;&gt;[root] aws_route53_record.root_domain (expand) -->
<g id="edge21" class="edge">
<title>[root] output.route53_domain&#45;&gt;[root] aws_route53_record.root_domain (expand)</title>
<path fill="none" stroke="black" d="M234,-503.7C222.79,-494.88 209,-484.03 196.85,-474.47"/>
<polygon fill="black" stroke="black" points="198.77,-471.54 188.75,-468.1 194.44,-477.04 198.77,-471.54"/>
</g>
<!-- [root] output.s3_website_endpoint -->
<g id="node15" class="node">
<title>[root] output.s3_website_endpoint</title>
<polygon fill="none" stroke="black" points="1020.5,-396 857.5,-396 857.5,-360 1026.5,-360 1026.5,-390 1020.5,-396"/>
<polyline fill="none" stroke="black" points="1020.5,-396 1020.5,-390 "/>
<polyline fill="none" stroke="black" points="1026.5,-390 1020.5,-390 "/>
<text text-anchor="middle" x="942" y="-374.3" font-family="Times,serif" font-size="14.00">output.s3_website_endpoint</text>
</g>
<!-- [root] output.s3_website_endpoint&#45;&gt;[root] aws_s3_bucket.site (expand) -->
<g id="edge22" class="edge">
<title>[root] output.s3_website_endpoint&#45;&gt;[root] aws_s3_bucket.site (expand)</title>
<path fill="none" stroke="black" d="M899.19,-359.88C875.05,-350.22 844.72,-338.09 819.19,-327.88"/>
<polygon fill="black" stroke="black" points="820.26,-324.53 809.67,-324.07 817.66,-331.03 820.26,-324.53"/>
</g>
<!-- [root] var.GANDI_API_KEY -->
<g id="node20" class="node">
<title>[root] var.GANDI_API_KEY</title>
<polygon fill="none" stroke="black" points="1366.5,-324 1229.5,-324 1229.5,-288 1372.5,-288 1372.5,-318 1366.5,-324"/>
<polyline fill="none" stroke="black" points="1366.5,-324 1366.5,-318 "/>
<polyline fill="none" stroke="black" points="1372.5,-318 1366.5,-318 "/>
<text text-anchor="middle" x="1301" y="-302.3" font-family="Times,serif" font-size="14.00">var.GANDI_API_KEY</text>
</g>
<!-- [root] provider[&quot;registry.terraform.io/go&#45;gandi/gandi&quot;]&#45;&gt;[root] var.GANDI_API_KEY -->
<g id="edge24" class="edge">
<title>[root] provider[&quot;registry.terraform.io/go&#45;gandi/gandi&quot;]&#45;&gt;[root] var.GANDI_API_KEY</title>
<path fill="none" stroke="black" d="M1301,-359.7C1301,-351.98 1301,-342.71 1301,-334.11"/>
<polygon fill="black" stroke="black" points="1304.5,-334.1 1301,-324.1 1297.5,-334.1 1304.5,-334.1"/>
</g>
<!-- [root] var.AWS_REGION -->
<g id="node18" class="node">
<title>[root] var.AWS_REGION</title>
<polygon fill="none" stroke="black" points="633.5,-36 514.5,-36 514.5,0 639.5,0 639.5,-30 633.5,-36"/>
<polyline fill="none" stroke="black" points="633.5,-36 633.5,-30 "/>
<polyline fill="none" stroke="black" points="639.5,-30 633.5,-30 "/>
<text text-anchor="middle" x="577" y="-14.3" font-family="Times,serif" font-size="14.00">var.AWS_REGION</text>
</g>
<!-- [root] provider[&quot;registry.terraform.io/hashicorp/aws&quot;]&#45;&gt;[root] var.AWS_REGION -->
<g id="edge29" class="edge">
<title>[root] provider[&quot;registry.terraform.io/hashicorp/aws&quot;]&#45;&gt;[root] var.AWS_REGION</title>
<path fill="none" stroke="black" d="M577,-71.7C577,-63.98 577,-54.71 577,-46.11"/>
<polygon fill="black" stroke="black" points="580.5,-46.1 577,-36.1 573.5,-46.1 580.5,-46.1"/>
</g>
<!-- [root] var.DOMAIN_NAME -->
<g id="node19" class="node">
<title>[root] var.DOMAIN_NAME</title>
<polygon fill="none" stroke="black" points="934,-36 800,-36 800,0 940,0 940,-30 934,-36"/>
<polyline fill="none" stroke="black" points="934,-36 934,-30 "/>
<polyline fill="none" stroke="black" points="940,-30 934,-30 "/>
<text text-anchor="middle" x="870" y="-14.3" font-family="Times,serif" font-size="14.00">var.DOMAIN_NAME</text>
</g>
<!-- [root] var.SUB_DOMAIN_NAME -->
<g id="node21" class="node">
<title>[root] var.SUB_DOMAIN_NAME</title>
<polygon fill="none" stroke="black" points="1125.5,-36 958.5,-36 958.5,0 1131.5,0 1131.5,-30 1125.5,-36"/>
<polyline fill="none" stroke="black" points="1125.5,-36 1125.5,-30 "/>
<polyline fill="none" stroke="black" points="1131.5,-30 1125.5,-30 "/>
<text text-anchor="middle" x="1045" y="-14.3" font-family="Times,serif" font-size="14.00">var.SUB_DOMAIN_NAME</text>
</g>
<!-- [root] local.FQDN (expand)&#45;&gt;[root] var.DOMAIN_NAME -->
<g id="edge18" class="edge">
<title>[root] local.FQDN (expand)&#45;&gt;[root] var.DOMAIN_NAME</title>
<path fill="none" stroke="black" d="M936.7,-72.05C925.54,-63.18 911.7,-52.17 899.52,-42.48"/>
<polygon fill="black" stroke="black" points="901.42,-39.52 891.41,-36.03 897.06,-45 901.42,-39.52"/>
</g>
<!-- [root] local.FQDN (expand)&#45;&gt;[root] var.SUB_DOMAIN_NAME -->
<g id="edge19" class="edge">
<title>[root] local.FQDN (expand)&#45;&gt;[root] var.SUB_DOMAIN_NAME</title>
<path fill="none" stroke="black" d="M979.06,-72.05C990.09,-63.18 1003.78,-52.17 1015.81,-42.48"/>
<polygon fill="black" stroke="black" points="1018.24,-45.03 1023.83,-36.03 1013.85,-39.57 1018.24,-45.03"/>
</g>
<!-- [root] provider[&quot;registry.terraform.io/go&#45;gandi/gandi&quot;] (close) -->
<g id="node23" class="node">
<title>[root] provider[&quot;registry.terraform.io/go&#45;gandi/gandi&quot;] (close)</title>
<ellipse fill="none" stroke="black" cx="1239" cy="-522" rx="230.16" ry="18"/>
<text text-anchor="middle" x="1239" y="-518.3" font-family="Times,serif" font-size="14.00">[root] provider[&quot;registry.terraform.io/go&#45;gandi/gandi&quot;] (close)</text>
</g>
<!-- [root] provider[&quot;registry.terraform.io/go&#45;gandi/gandi&quot;] (close)&#45;&gt;[root] gandi_livedns_record.site (expand) -->
<g id="edge23" class="edge">
<title>[root] provider[&quot;registry.terraform.io/go&#45;gandi/gandi&quot;] (close)&#45;&gt;[root] gandi_livedns_record.site (expand)</title>
<path fill="none" stroke="black" d="M1254.33,-503.7C1261.76,-495.3 1270.82,-485.07 1278.98,-475.86"/>
<polygon fill="black" stroke="black" points="1281.84,-477.91 1285.85,-468.1 1276.6,-473.27 1281.84,-477.91"/>
</g>
<!-- [root] provider[&quot;registry.terraform.io/hashicorp/aws&quot;] (close) -->
<g id="node24" class="node">
<title>[root] provider[&quot;registry.terraform.io/hashicorp/aws&quot;] (close)</title>
<ellipse fill="none" stroke="black" cx="595" cy="-522" rx="227.46" ry="18"/>
<text text-anchor="middle" x="595" y="-518.3" font-family="Times,serif" font-size="14.00">[root] provider[&quot;registry.terraform.io/hashicorp/aws&quot;] (close)</text>
</g>
<!-- [root] provider[&quot;registry.terraform.io/hashicorp/aws&quot;] (close)&#45;&gt;[root] aws_route53_record.root_domain (expand) -->
<g id="edge25" class="edge">
<title>[root] provider[&quot;registry.terraform.io/hashicorp/aws&quot;] (close)&#45;&gt;[root] aws_route53_record.root_domain (expand)</title>
<path fill="none" stroke="black" d="M500.81,-505.59C434.89,-494.81 346.59,-480.37 277.37,-469.05"/>
<polygon fill="black" stroke="black" points="277.73,-465.56 267.3,-467.4 276.6,-472.47 277.73,-465.56"/>
</g>
<!-- [root] provider[&quot;registry.terraform.io/hashicorp/aws&quot;] (close)&#45;&gt;[root] aws_route53_record.www_domain (expand) -->
<g id="edge26" class="edge">
<title>[root] provider[&quot;registry.terraform.io/hashicorp/aws&quot;] (close)&#45;&gt;[root] aws_route53_record.www_domain (expand)</title>
<path fill="none" stroke="black" d="M546.18,-504.41C517.09,-494.52 479.93,-481.9 449.05,-471.4"/>
<polygon fill="black" stroke="black" points="449.85,-467.98 439.26,-468.08 447.6,-474.61 449.85,-467.98"/>
</g>
<!-- [root] provider[&quot;registry.terraform.io/hashicorp/aws&quot;] (close)&#45;&gt;[root] aws_s3_bucket_acl.site (expand) -->
<g id="edge27" class="edge">
<title>[root] provider[&quot;registry.terraform.io/hashicorp/aws&quot;] (close)&#45;&gt;[root] aws_s3_bucket_acl.site (expand)</title>
<path fill="none" stroke="black" d="M742.57,-508.23C795.29,-500.35 845.73,-487.82 862,-468 872.15,-455.63 870.1,-445.8 862,-432 854.23,-418.77 841.83,-408.61 828.52,-400.89"/>
<polygon fill="black" stroke="black" points="830.15,-397.79 819.68,-396.16 826.85,-403.96 830.15,-397.79"/>
</g>
<!-- [root] provider[&quot;registry.terraform.io/hashicorp/aws&quot;] (close)&#45;&gt;[root] aws_s3_bucket_policy.allow_access_from_cloudfront_OAI (expand) -->
<g id="edge28" class="edge">
<title>[root] provider[&quot;registry.terraform.io/hashicorp/aws&quot;] (close)&#45;&gt;[root] aws_s3_bucket_policy.allow_access_from_cloudfront_OAI (expand)</title>
<path fill="none" stroke="black" d="M616.06,-504.05C627.09,-495.18 640.78,-484.17 652.81,-474.48"/>
<polygon fill="black" stroke="black" points="655.24,-477.03 660.83,-468.03 650.85,-471.57 655.24,-477.03"/>
</g>
<!-- [root] root -->
<g id="node25" class="node">
<title>[root] root</title>
<ellipse fill="none" stroke="black" cx="595" cy="-594" rx="47.39" ry="18"/>
<text text-anchor="middle" x="595" y="-590.3" font-family="Times,serif" font-size="14.00">[root] root</text>
</g>
<!-- [root] root&#45;&gt;[root] output.cdn_domain -->
<g id="edge30" class="edge">
<title>[root] root&#45;&gt;[root] output.cdn_domain</title>
<path fill="none" stroke="black" d="M550.51,-587.72C473.79,-578.54 311.7,-558.81 175,-540 161.2,-538.1 146.48,-535.98 132.35,-533.89"/>
<polygon fill="black" stroke="black" points="132.6,-530.39 122.2,-532.38 131.58,-537.32 132.6,-530.39"/>
</g>
<!-- [root] root&#45;&gt;[root] output.route53_domain -->
<g id="edge31" class="edge">
<title>[root] root&#45;&gt;[root] output.route53_domain</title>
<path fill="none" stroke="black" d="M554.45,-584.63C501.18,-573.63 406.39,-554.05 337.91,-539.91"/>
<polygon fill="black" stroke="black" points="338.5,-536.46 328,-537.87 337.09,-543.32 338.5,-536.46"/>
</g>
<!-- [root] root&#45;&gt;[root] output.s3_website_endpoint -->
<g id="edge32" class="edge">
<title>[root] root&#45;&gt;[root] output.s3_website_endpoint</title>
<path fill="none" stroke="black" d="M642.42,-592.32C693.13,-589.46 773.93,-578.55 831,-540 881.02,-506.22 915.1,-441.71 931.25,-405.44"/>
<polygon fill="black" stroke="black" points="934.58,-406.58 935.33,-396.01 928.15,-403.8 934.58,-406.58"/>
</g>
<!-- [root] root&#45;&gt;[root] provider[&quot;registry.terraform.io/go&#45;gandi/gandi&quot;] (close) -->
<g id="edge33" class="edge">
<title>[root] root&#45;&gt;[root] provider[&quot;registry.terraform.io/go&#45;gandi/gandi&quot;] (close)</title>
<path fill="none" stroke="black" d="M640.03,-588.11C734.08,-577.88 954.69,-553.9 1100.31,-538.07"/>
<polygon fill="black" stroke="black" points="1101.1,-541.51 1110.66,-536.95 1100.34,-534.55 1101.1,-541.51"/>
</g>
<!-- [root] root&#45;&gt;[root] provider[&quot;registry.terraform.io/hashicorp/aws&quot;] (close) -->
<g id="edge34" class="edge">
<title>[root] root&#45;&gt;[root] provider[&quot;registry.terraform.io/hashicorp/aws&quot;] (close)</title>
<path fill="none" stroke="black" d="M595,-575.7C595,-567.98 595,-558.71 595,-550.11"/>
<polygon fill="black" stroke="black" points="598.5,-550.1 595,-540.1 591.5,-550.1 598.5,-550.1"/>
</g>
</g>
</svg>
